<?xml version="1.0" standalone="no"?>
<!DOCTYPE svg PUBLIC "-//W3C//DTD SVG 1.1//EN"
"http://www.w3.org/Graphics/SVG/1.1/DTD/svg11.dtd">

<svg width="600" height="295" view_box="0 0 600 295"
xmlns="http://www.w3.org/2000/svg"
xmlns:link="http://www.w3.org/1999/xlink">\n\n<desc>Généré par Mocodo 2.3.7 le Tue, 12 Jul 2022 15:03:59</desc>

<rect id="frame" x="0" y="0" width="600" height="295" fill="#f7f7f7" stroke="none" stroke-width="0"/>

<!-- Association PLAY -->
<line x1="61" y1="68" x2="265" y2="152" stroke="#8073ac" stroke-width="2"/>
<text x="118" y="84.6366477445" fill="#b35806" font-family="Verdana" font-size="12">0,N</text>
<line x1="515" y1="68" x2="265" y2="152" stroke="#8073ac" stroke-width="2"/>
<text x="412" y="88.1563686179" fill="#b35806" font-family="Verdana" font-size="12">1,N</text>
<line x1="265" y1="244" x2="265" y2="152" stroke="#8073ac" stroke-width="2"/>
<text x="270.0" y="194" fill="#b35806" font-family="Verdana" font-size="12">0,N</text>
<g id="association-PLAY">
	<path d="M 291 127 a 14 14 90 0 1 14 14 V 152 h -80 V 141 a 14 14 90 0 1 14 -14" fill="#b2abd2" stroke="#b2abd2" stroke-width="0"/>
	<path d="M 305 152.0 v 11 a 14 14 90 0 1 -14 14 H 239 a 14 14 90 0 1 -14 -14 V 152.0 H 80" fill="#d8daeb" stroke="#d8daeb" stroke-width="0"/>
	<rect x="225" y="127" width="80" height="50" fill="none" rx="14" stroke="#8073ac" stroke-width="2"/>
	<line x1="225" y1="152" x2="305" y2="152" stroke="#8073ac" stroke-width="1"/>
	<text x="249" y="144.7" fill="#000000" font-family="Verdana" font-size="12">PLAY</text>
	<text x="232" y="169.8" fill="#000000" font-family="Verdana" font-size="12">is playable</text>
</g>

<!-- Association HAS -->
<line x1="61" y1="244" x2="161" y2="244" stroke="#8073ac" stroke-width="2"/>
<text x="112" y="261.0" fill="#b35806" font-family="Verdana" font-size="12">0,N</text>
<line x1="265" y1="244" x2="161" y2="244" stroke="#8073ac" stroke-width="2"/>
<text x="188" y="261.0" fill="#b35806" font-family="Verdana" font-size="12">0,N</text>
<g id="association-HAS">
	<path d="M 169 219 a 14 14 90 0 1 14 14 V 244 h -44 V 233 a 14 14 90 0 1 14 -14" fill="#b2abd2" stroke="#b2abd2" stroke-width="0"/>
	<path d="M 183 244.0 v 11 a 14 14 90 0 1 -14 14 H 153 a 14 14 90 0 1 -14 -14 V 244.0 H 44" fill="#d8daeb" stroke="#d8daeb" stroke-width="0"/>
	<rect x="139" y="219" width="44" height="50" fill="none" rx="14" stroke="#8073ac" stroke-width="2"/>
	<line x1="139" y1="244" x2="183" y2="244" stroke="#8073ac" stroke-width="1"/>
	<text x="148" y="236.7" fill="#000000" font-family="Verdana" font-size="12">HAS</text>
	<text x="146" y="261.8" fill="#000000" font-family="Verdana" font-size="12">level</text>
</g>

<!-- Association BELONGS TO -->
<line x1="265" y1="244" x2="395" y2="244" stroke="#8073ac" stroke-width="2"/>
<text x="320" y="261.0" fill="#b35806" font-family="Verdana" font-size="12">1,1</text>
<line x1="515" y1="244" x2="395" y2="244" stroke="#8073ac" stroke-width="2"/>
<text x="448" y="261.0" fill="#b35806" font-family="Verdana" font-size="12">0,N</text>
<g id="association-BELONGS TO">
	<path d="M 429 219 a 14 14 90 0 1 14 14 V 244 h -96 V 233 a 14 14 90 0 1 14 -14" fill="#b2abd2" stroke="#b2abd2" stroke-width="0"/>
	<path d="M 443 244.0 v 11 a 14 14 90 0 1 -14 14 H 361 a 14 14 90 0 1 -14 -14 V 244.0 H 96" fill="#d8daeb" stroke="#d8daeb" stroke-width="0"/>
	<rect x="347" y="219" width="96" height="50" fill="none" rx="14" stroke="#8073ac" stroke-width="2"/>
	<line x1="347" y1="244" x2="443" y2="244" stroke="#8073ac" stroke-width="1"/>
	<text x="354" y="236.7" fill="#000000" font-family="Verdana" font-size="12">BELONGS TO</text>
</g>

<!-- Entity BATTLE -->
<g id="entity-BATTLE">
	<g id="frame-BATTLE">
		<rect x="439" y="26" width="152" height="25" fill="#fdb863" stroke="#fdb863" stroke-width="0"/>
		<rect x="439" y="51.0" width="152" height="59" fill="#fee0b6" stroke="#fee0b6" stroke-width="0"/>
		<rect x="439" y="26" width="152" height="84" fill="none" stroke="#e08214" stroke-width="2"/>
		<line x1="439" y1="51" x2="591" y2="51" stroke="#e08214" stroke-width="1"/>
	</g>
	<text x="491" y="43.7" fill="#000000" font-family="Verdana" font-size="12">BATTLE</text>
	<text x="444" y="68.8" fill="#000000" font-family="Verdana" font-size="12">battle num</text>
	<line x1="444" y1="71" x2="511" y2="71" stroke="#000000" stroke-width="1"/>
	<text x="444" y="85.8" fill="#000000" font-family="Verdana" font-size="12">wished players number</text>
	<text x="444" y="102.8" fill="#000000" font-family="Verdana" font-size="12">start date</text>
</g>

<!-- Entity CHARACTER -->
<g id="entity-CHARACTER">
	<g id="frame-CHARACTER">
		<rect x="215" y="202" width="100" height="25" fill="#fdb863" stroke="#fdb863" stroke-width="0"/>
		<rect x="215" y="227.0" width="100" height="59" fill="#fee0b6" stroke="#fee0b6" stroke-width="0"/>
		<rect x="215" y="202" width="100" height="84" fill="none" stroke="#e08214" stroke-width="2"/>
		<line x1="215" y1="227" x2="315" y2="227" stroke="#e08214" stroke-width="1"/>
	</g>
	<text x="227" y="219.7" fill="#000000" font-family="Verdana" font-size="12">CHARACTER</text>
	<text x="220" y="244.8" fill="#000000" font-family="Verdana" font-size="12">character num</text>
	<line x1="220" y1="247" x2="309" y2="247" stroke="#000000" stroke-width="1"/>
	<text x="220" y="261.8" fill="#000000" font-family="Verdana" font-size="12">name</text>
	<text x="220" y="278.8" fill="#000000" font-family="Verdana" font-size="12">picture</text>
</g>

<!-- Entity CAPACITY -->
<g id="entity-CAPACITY">
	<g id="frame-CAPACITY">
		<rect x="15" y="202" width="92" height="25" fill="#fdb863" stroke="#fdb863" stroke-width="0"/>
		<rect x="15" y="227.0" width="92" height="59" fill="#fee0b6" stroke="#fee0b6" stroke-width="0"/>
		<rect x="15" y="202" width="92" height="84" fill="none" stroke="#e08214" stroke-width="2"/>
		<line x1="15" y1="227" x2="107" y2="227" stroke="#e08214" stroke-width="1"/>
	</g>
	<text x="30" y="219.7" fill="#000000" font-family="Verdana" font-size="12">CAPACITY</text>
	<text x="20" y="244.8" fill="#000000" font-family="Verdana" font-size="12">capacity num</text>
	<line x1="20" y1="247" x2="102" y2="247" stroke="#000000" stroke-width="1"/>
	<text x="20" y="261.8" fill="#000000" font-family="Verdana" font-size="12">name</text>
	<text x="20" y="278.8" fill="#000000" font-family="Verdana" font-size="12">description</text>
</g>

<!-- Entity USER -->
<g id="entity-USER">
	<g id="frame-USER">
		<rect x="9" y="9" width="104" height="25" fill="#fdb863" stroke="#fdb863" stroke-width="0"/>
		<rect x="9" y="34.0" width="104" height="93" fill="#fee0b6" stroke="#fee0b6" stroke-width="0"/>
		<rect x="9" y="9" width="104" height="118" fill="none" stroke="#e08214" stroke-width="2"/>
		<line x1="9" y1="34" x2="113" y2="34" stroke="#e08214" stroke-width="1"/>
	</g>
	<text x="44" y="26.7" fill="#000000" font-family="Verdana" font-size="12">USER</text>
	<text x="14" y="51.7" fill="#000000" font-family="Verdana" font-size="12">user num</text>
	<line x1="14" y1="54" x2="72" y2="54" stroke="#000000" stroke-width="1"/>
	<text x="14" y="68.8" fill="#000000" font-family="Verdana" font-size="12">name</text>
	<text x="14" y="85.8" fill="#000000" font-family="Verdana" font-size="12">password</text>
	<text x="14" y="102.8" fill="#000000" font-family="Verdana" font-size="12">victory number</text>
	<text x="14" y="119.8" fill="#000000" font-family="Verdana" font-size="12">role</text>
</g>

<!-- Entity FAMILY -->
<g id="entity-FAMILY">
	<g id="frame-FAMILY">
		<rect x="475" y="210" width="80" height="25" fill="#fdb863" stroke="#fdb863" stroke-width="0"/>
		<rect x="475" y="235.0" width="80" height="43" fill="#fee0b6" stroke="#fee0b6" stroke-width="0"/>
		<rect x="475" y="210" width="80" height="68" fill="none" stroke="#e08214" stroke-width="2"/>
		<line x1="475" y1="235" x2="555" y2="235" stroke="#e08214" stroke-width="1"/>
	</g>
	<text x="492" y="227.7" fill="#000000" font-family="Verdana" font-size="12">FAMILY</text>
	<text x="480" y="252.8" fill="#000000" font-family="Verdana" font-size="12">family num</text>
	<line x1="480" y1="255" x2="549" y2="255" stroke="#000000" stroke-width="1"/>
	<text x="480" y="269.8" fill="#000000" font-family="Verdana" font-size="12">name</text>
</g>
</svg>